<svg xmlns="http://www.w3.org/2000/svg" width="124" height="113" viewBox="0 0 124 113"><g transform="translate(-357 -2780)"><rect width="124" height="113" rx="5" transform="translate(357 2780)" fill="#161b28"/><path d="M0,2.25,5.845,68.542l26.313,8.743,26.313-8.743L64.316,2.25Zm52.441,13.4-.8,7.922L32.325,31.829l-.05.017H50.95L48.806,56.4,32.359,61.206,15.811,56.316,14.739,43.938h8.19l.536,6.415,8.81,2.228L41.437,50l.62-10.317L14.2,39.6v-.017l-.033.017-.6-7.755,18.776-7.822,1.089-.452H12.846l-.971-7.922Z" transform="translate(386.941 2796.75)" fill="#1eaef9"/></g></svg>