<svg xmlns="http://www.w3.org/2000/svg" width="124" height="113" viewBox="0 0 124 113"><g transform="translate(-709 -2780)"><rect width="124" height="113" rx="5" transform="translate(709 2780)" fill="#161b28"/><path d="M52.509,20.481q-1.017-.339-2.034-.64c.113-.465.213-.929.314-1.394,1.544-7.483.527-13.5-2.9-15.481-3.3-1.9-8.689.075-14.138,4.821-.54.465-1.067.954-1.569,1.444-.339-.326-.691-.653-1.042-.967C25.426,3.191,19.7,1.056,16.272,3.053,12.983,4.961,12,10.624,13.385,17.706c.138.7.289,1.394.465,2.1-.8.226-1.595.477-2.335.741C4.809,22.866,0,26.532,0,30.324c0,3.917,5.123,7.847,12.091,10.233.565.188,1.13.377,1.708.54-.188.753-.352,1.494-.5,2.26-1.318,6.969-.289,12.493,3,14.389,3.39,1.959,9.09-.05,14.64-4.909.439-.389.879-.791,1.318-1.218.552.54,1.13,1.055,1.708,1.557,5.374,4.621,10.685,6.491,13.962,4.6,3.39-1.959,4.5-7.9,3.064-15.13q-.17-.829-.377-1.7c.4-.113.791-.239,1.18-.364,7.245-2.4,12.493-6.278,12.493-10.258C64.286,26.52,59.339,22.828,52.509,20.481ZM35.521,9.821c4.671-4.068,9.028-5.663,11.012-4.52,2.122,1.218,2.938,6.14,1.607,12.606-.088.427-.176.841-.289,1.256a64.277,64.277,0,0,0-8.45-1.331,63.439,63.439,0,0,0-5.349-6.667c.49-.465.967-.9,1.469-1.343ZM20.993,36.841c.64,1.092,1.293,2.185,1.984,3.252a56.855,56.855,0,0,1-5.826-.942A58.653,58.653,0,0,1,19.2,33.564c.578,1.1,1.168,2.2,1.8,3.277Zm-3.8-15.1c1.808-.4,3.729-.728,5.725-.979-.665,1.042-1.318,2.109-1.934,3.189s-1.218,2.16-1.783,3.265c-.791-1.871-1.456-3.7-2.009-5.474Zm3.44,8.651c.829-1.733,1.733-3.428,2.687-5.1S25.3,22,26.38,20.405c1.883-.138,3.8-.213,5.763-.213s3.892.075,5.763.213q1.6,2.373,3.051,4.859t2.725,5.073q-1.262,2.6-2.712,5.123c-.954,1.67-1.971,3.29-3.039,4.9-1.871.138-3.817.2-5.788.2s-3.88-.063-5.725-.176q-1.639-2.392-3.089-4.9c-.967-1.67-1.858-3.365-2.7-5.1Zm22.676,6.429c.64-1.1,1.243-2.222,1.833-3.352a58.286,58.286,0,0,1,2.122,5.562,55.149,55.149,0,0,1-5.9,1C42.037,38.975,42.678,37.9,43.305,36.816Zm1.808-9.605c-.59-1.1-1.193-2.21-1.821-3.29s-1.256-2.122-1.921-3.164a57.78,57.78,0,0,1,5.763,1A55.566,55.566,0,0,1,45.113,27.21ZM32.168,13.085a55.135,55.135,0,0,1,3.717,4.5c-2.486-.113-4.985-.113-7.471,0C29.645,15.96,30.913,14.454,32.168,13.085ZM17.6,5.388c2.109-1.23,6.793.527,11.727,4.9.314.276.628.578.954.879A63.791,63.791,0,0,0,24.9,17.831a66.186,66.186,0,0,0-8.438,1.306c-.163-.64-.3-1.293-.439-1.946C14.841,11.114,15.62,6.531,17.6,5.388Zm-3.076,33.1c-.527-.151-1.042-.314-1.557-.49a25.608,25.608,0,0,1-7.91-3.917A5.634,5.634,0,0,1,2.7,30.324c0-2.3,3.968-5.236,9.693-7.232.716-.251,1.444-.477,2.172-.691a66.765,66.765,0,0,0,3.076,7.986,68.634,68.634,0,0,0-3.114,8.1Zm14.64,12.3a22.981,22.981,0,0,1-7.082,4.432,5.557,5.557,0,0,1-4.432.163c-2-1.155-2.825-5.587-1.7-11.551.138-.7.289-1.406.465-2.1a62.814,62.814,0,0,0,8.525,1.23,66.26,66.26,0,0,0,5.424,6.7C29.971,50.062,29.569,50.439,29.167,50.79Zm3.076-3.051c-1.281-1.381-2.561-2.913-3.8-4.558,1.205.05,2.448.075,3.7.075,1.293,0,2.561-.025,3.817-.088a54.149,54.149,0,0,1-3.717,4.57Zm16.411,3.767a5.58,5.58,0,0,1-2.072,3.93c-2,1.155-6.253-.352-10.848-4.294-.527-.452-1.055-.942-1.595-1.444a62.112,62.112,0,0,0,5.3-6.73A61.9,61.9,0,0,0,48,41.65c.126.515.239,1.03.339,1.532a22.889,22.889,0,0,1,.314,8.325Zm2.285-13.5c-.352.113-.7.226-1.067.326a63.783,63.783,0,0,0-3.2-8.011,63.465,63.465,0,0,0,3.076-7.9c.653.188,1.281.389,1.883.59,5.851,2.009,9.957,5,9.957,7.282,0,2.461-4.382,5.638-10.647,7.709Zm-18.8-1.883a5.751,5.751,0,1,0-5.751-5.751A5.75,5.75,0,0,0,32.143,36.125Z" transform="translate(739 2805.749)" fill="#0eadff"/></g></svg>