<svg xmlns="http://www.w3.org/2000/svg" width="172" height="186" viewBox="0 0 172 186"><g transform="translate(-46 -235)"><circle cx="2.5" cy="2.5" r="2.5" transform="translate(213 235)" fill="#d1d3d9"/><ellipse cx="2" cy="2.5" rx="2" ry="2.5" transform="translate(158 235)" fill="#d1d3d9"/><ellipse cx="2" cy="2.5" rx="2" ry="2.5" transform="translate(102 235)" fill="#d1d3d9"/><circle cx="2.5" cy="2.5" r="2.5" transform="translate(46 235)" fill="#d1d3d9"/><circle cx="2.5" cy="2.5" r="2.5" transform="translate(213 307)" fill="#d1d3d9"/><ellipse cx="2" cy="2.5" rx="2" ry="2.5" transform="translate(158 307)" fill="#d1d3d9"/><ellipse cx="2" cy="2.5" rx="2" ry="2.5" transform="translate(102 307)" fill="#d1d3d9"/><circle cx="2.5" cy="2.5" r="2.5" transform="translate(46 307)" fill="#d1d3d9"/><circle cx="2.5" cy="2.5" r="2.5" transform="translate(213 379)" fill="#d1d3d9"/><ellipse cx="2" cy="2.5" rx="2" ry="2.5" transform="translate(158 379)" fill="#d1d3d9"/><ellipse cx="2" cy="2.5" rx="2" ry="2.5" transform="translate(102 379)" fill="#d1d3d9"/><circle cx="2.5" cy="2.5" r="2.5" transform="translate(46 379)" fill="#d1d3d9"/><circle cx="2.5" cy="2.5" r="2.5" transform="translate(213 272)" fill="#d1d3d9"/><ellipse cx="2" cy="2.5" rx="2" ry="2.5" transform="translate(158 272)" fill="#d1d3d9"/><ellipse cx="2" cy="2.5" rx="2" ry="2.5" transform="translate(102 272)" fill="#d1d3d9"/><circle cx="2.5" cy="2.5" r="2.5" transform="translate(46 272)" fill="#d1d3d9"/><circle cx="2.5" cy="2.5" r="2.5" transform="translate(213 344)" fill="#d1d3d9"/><ellipse cx="2" cy="2.5" rx="2" ry="2.5" transform="translate(158 344)" fill="#d1d3d9"/><ellipse cx="2" cy="2.5" rx="2" ry="2.5" transform="translate(102 344)" fill="#d1d3d9"/><circle cx="2.5" cy="2.5" r="2.5" transform="translate(46 344)" fill="#d1d3d9"/><circle cx="2.5" cy="2.5" r="2.5" transform="translate(213 416)" fill="#d1d3d9"/><ellipse cx="2" cy="2.5" rx="2" ry="2.5" transform="translate(158 416)" fill="#d1d3d9"/><ellipse cx="2" cy="2.5" rx="2" ry="2.5" transform="translate(102 416)" fill="#d1d3d9"/><circle cx="2.5" cy="2.5" r="2.5" transform="translate(46 416)" fill="#d1d3d9"/></g></svg>