<svg xmlns="http://www.w3.org/2000/svg" width="74" height="80" viewBox="0 0 74 80"><g transform="translate(-46 -235)"><circle cx="1" cy="1" r="1" transform="translate(118 235)" fill="#d1d3d9"/><circle cx="1" cy="1" r="1" transform="translate(94 235)" fill="#d1d3d9"/><circle cx="1" cy="1" r="1" transform="translate(70 235)" fill="#d1d3d9"/><circle cx="1" cy="1" r="1" transform="translate(46 235)" fill="#d1d3d9"/><circle cx="1" cy="1" r="1" transform="translate(118 266)" fill="#d1d3d9"/><circle cx="1" cy="1" r="1" transform="translate(94 266)" fill="#d1d3d9"/><circle cx="1" cy="1" r="1" transform="translate(70 266)" fill="#d1d3d9"/><circle cx="1" cy="1" r="1" transform="translate(46 266)" fill="#d1d3d9"/><circle cx="1" cy="1" r="1" transform="translate(118 297)" fill="#d1d3d9"/><circle cx="1" cy="1" r="1" transform="translate(94 297)" fill="#d1d3d9"/><circle cx="1" cy="1" r="1" transform="translate(70 297)" fill="#d1d3d9"/><circle cx="1" cy="1" r="1" transform="translate(46 297)" fill="#d1d3d9"/><circle cx="1" cy="1" r="1" transform="translate(118 251)" fill="#d1d3d9"/><circle cx="1" cy="1" r="1" transform="translate(94 251)" fill="#d1d3d9"/><circle cx="1" cy="1" r="1" transform="translate(70 251)" fill="#d1d3d9"/><circle cx="1" cy="1" r="1" transform="translate(46 251)" fill="#d1d3d9"/><circle cx="1" cy="1" r="1" transform="translate(118 282)" fill="#d1d3d9"/><circle cx="1" cy="1" r="1" transform="translate(94 282)" fill="#d1d3d9"/><circle cx="1" cy="1" r="1" transform="translate(70 282)" fill="#d1d3d9"/><circle cx="1" cy="1" r="1" transform="translate(46 282)" fill="#d1d3d9"/><circle cx="1" cy="1" r="1" transform="translate(118 313)" fill="#d1d3d9"/><circle cx="1" cy="1" r="1" transform="translate(94 313)" fill="#d1d3d9"/><circle cx="1" cy="1" r="1" transform="translate(70 313)" fill="#d1d3d9"/><circle cx="1" cy="1" r="1" transform="translate(46 313)" fill="#d1d3d9"/></g></svg>