<svg xmlns="http://www.w3.org/2000/svg" width="66.032" height="38.776" viewBox="0 0 66.032 38.776"><g transform="translate(-919.72 -406.796)" opacity="0.53"><path d="M955.638,428.26l-1.066-1.085a18.184,18.184,0,0,0-8.094-3.821c-5.035-1.157-13.547-1.382-25.5,4.119l-1.254-2.725a54.124,54.124,0,0,1,16.149-4.813,32.971,32.971,0,0,1,11.52.552,22.824,22.824,0,0,1,8.129,3.6c1.638-1.637,5.168-5.066,9.268-8.459a65.077,65.077,0,0,1,8.811-6.307c3.458-1.98,6.186-2.782,8.34-2.452a4.973,4.973,0,0,1,3.814,2.823l-2.683,1.342a1.985,1.985,0,0,0-1.584-1.2c-.987-.151-2.9.088-6.387,2.085a62.035,62.035,0,0,0-8.379,6c-5.42,4.483-9.965,9.182-10.01,9.229Z" transform="translate(0)" fill="#d5ac23"/><path d="M955.638,428.26l-1.066-1.085a18.184,18.184,0,0,0-8.094-3.821c-5.035-1.157-13.547-1.382-25.5,4.119l-1.254-2.725a54.124,54.124,0,0,1,16.149-4.813,32.971,32.971,0,0,1,11.52.552,22.824,22.824,0,0,1,8.129,3.6c1.638-1.637,5.168-5.066,9.268-8.459a65.077,65.077,0,0,1,8.811-6.307c3.458-1.98,6.186-2.782,8.34-2.452a4.973,4.973,0,0,1,3.814,2.823l-2.683,1.342a1.985,1.985,0,0,0-1.584-1.2c-.987-.151-2.9.088-6.387,2.085a62.035,62.035,0,0,0-8.379,6c-5.42,4.483-9.965,9.182-10.01,9.229Z" transform="translate(0 8.907)" fill="#d5ac23"/><path d="M955.638,428.26l-1.066-1.085a18.184,18.184,0,0,0-8.094-3.821c-5.035-1.157-13.547-1.382-25.5,4.119l-1.254-2.725a54.124,54.124,0,0,1,16.149-4.813,32.971,32.971,0,0,1,11.52.552,22.824,22.824,0,0,1,8.129,3.6c1.638-1.637,5.168-5.066,9.268-8.459a65.077,65.077,0,0,1,8.811-6.307c3.458-1.98,6.186-2.782,8.34-2.452a4.973,4.973,0,0,1,3.814,2.823l-2.683,1.342a1.985,1.985,0,0,0-1.584-1.2c-.987-.151-2.9.088-6.387,2.085a62.035,62.035,0,0,0-8.379,6c-5.42,4.483-9.965,9.182-10.01,9.229Z" transform="translate(0 17.312)" fill="#d5ac23"/></g></svg>