<svg xmlns="http://www.w3.org/2000/svg" width="124" height="113" viewBox="0 0 124 113"><g transform="translate(-885 -2780)"><rect width="124" height="113" rx="5" transform="translate(885 2780)" fill="#161b28"/><path d="M42.748,40.278c0,5.761-5.809,5.628-6.423,5.628H24.495v-11.1h11.83c6.224,0,6.423,4.334,6.423,5.469Zm-7.334-9.935c.1,0,5.622.136,5.622-4.933,0-2.108-.513-4.873-5.622-4.873H24.495v9.806Zm30.105-17.95V52.967c-.018,5.6-4.9,10.127-10.92,10.144H10.92C4.9,63.094.018,58.562,0,52.967V12.394C.018,6.8,4.9,2.266,10.92,2.25H54.6C60.622,2.266,65.5,6.8,65.519,12.394Zm-16.08,28.69c0-2.93-.973-7.919-7.173-9.149v-.1c3.351-1.329,5.461-3.838,5.461-7.559,0-.951.292-8.8-11.349-8.8H17.8v35.5c18.753,0,20.456.228,23.926-.776,2.078-.6,7.709-2.443,7.709-9.118Z" transform="translate(911.744 2803.75)" fill="#622daa"/></g></svg>