<svg xmlns="http://www.w3.org/2000/svg" xmlns:xlink="http://www.w3.org/1999/xlink" width="1920" height="156.425" viewBox="0 0 1920 156.425"><defs><linearGradient id="a" x2="0" y2="1" gradientUnits="objectBoundingBox"><stop offset="0" stop-color="#1d2333"/><stop offset="1" stop-color="#1d2333"/></linearGradient></defs><path d="M0,176.376H13.333c13.333,0,40,0,66.667-11.261,26.667-11.472,53.333-33.677,80-31.033s53.333,31.192,80,31.033c26.667.159,53.333-28.39,80-33.835,26.667-5.657,53.333,11.261,80,5.6,26.667-5.445,53.333-33.994,80-45.1s53.333-5.815,80-5.657c26.667-.159,53.333-5.445,80-8.459,26.667-2.8,53.333-2.8,80,16.918,26.667,19.931,53.333,59.053,80,64.868s53.333-22.733,80-25.376,53.333,19.561,80,22.574c26.667,2.8,53.333-14.116,80-19.772,26.667-5.445,53.333-.159,80-8.459,26.667-8.617,53.333-30.822,80-22.522,26.667,8.617,53.333,47.739,80,64.815,26.667,16.759,53.333,11.472,80-11.261s53.333-61.855,80-59.212,53.333,48.109,80,45.1c26.667-2.8,53.333-53.555,80-59.212,26.667-5.445,53.333,33.677,80,56.41s53.333,28.02,80,16.918,53.333-39.651,80-47.951c26.667-8.617,53.333,3.013,66.667,8.459L1920,125.623V24.118H0Z" transform="translate(0 -24.118)" fill="url(#a)"/></svg>