<svg xmlns="http://www.w3.org/2000/svg" width="135.72" height="41.109" viewBox="0 0 135.72 41.109"><g transform="translate(-120.085 -63)"><g transform="translate(120.085 61)"><g transform="translate(0 2)"><g transform="translate(26.183 9.056)" style="mix-blend-mode:lighten;isolation:isolate"><text transform="translate(-7.268 19.944)" fill="#fff" font-size="22" font-family="LeagueSpartan-Bold, League Spartan" font-weight="700" letter-spacing="0.05em"><tspan x="0" y="0">EL TY</tspan><tspan y="0" fill="#7750f8">AR</tspan></text></g><path d="M10.335,26.743,33.89,11.2a2.938,2.938,0,1,0-4.161-4.149L12.106,24.663a2.932,2.932,0,0,0-.086,4.051l17.7,17.733A2.938,2.938,0,0,0,33.878,42.3Z" transform="translate(-10.335 -6.194)" fill="#7750f8"/><path d="M36.666,26.743,12.109,11.2a2.925,2.925,0,0,1,0-4.149,2.962,2.962,0,0,1,4.161,0L33.9,24.663a2.932,2.932,0,0,1,.086,4.051l-17.7,17.735A2.938,2.938,0,0,1,12.122,42.3Z" transform="translate(99.054 -6.196)" fill="#7750f8"/></g></g></g></svg>