<svg xmlns="http://www.w3.org/2000/svg" width="58.553" height="21.794" viewBox="0 0 58.553 21.794"><g transform="translate(88 -37.513)"><g transform="translate(-85 38)"><g transform="translate(4 -0.487)"><g transform="translate(0)"><g transform="translate(9.89 4.9)" style="mix-blend-mode:lighten;isolation:isolate"><text transform="translate(0 10)" fill="#fff" font-size="11" font-family="LeagueSpartan-Bold, League Spartan" font-weight="700" letter-spacing="0.05em"><tspan x="0" y="0">I </tspan><tspan y="0" fill="#7750f8">M</tspan></text><circle cx="1.5" cy="1.5" r="1.5" transform="translate(3.861 7.336)" fill="#7750f8"/><path d="M1.5,1a.5.5,0,1,0,.5.5A.5.5,0,0,0,1.5,1m0-1A1.5,1.5,0,1,1,0,1.5,1.5,1.5,0,0,1,1.5,0Z" transform="translate(3.861 7.336)" fill="#fff"/></g><path d="M10.335,17.088l12.59-8.24a1.542,1.542,0,0,0,0-2.2,1.586,1.586,0,0,0-2.224,0l-9.42,9.336a1.545,1.545,0,0,0-.046,2.148l9.459,9.4a1.588,1.588,0,0,0,2.224,0,1.542,1.542,0,0,0,0-2.2Z" transform="translate(-17.335 -6.194)" fill="#7750f8"/><path d="M24.833,17.089,11.708,8.849a1.542,1.542,0,0,1,0-2.2,1.593,1.593,0,0,1,2.224,0l9.421,9.337a1.545,1.545,0,0,1,.046,2.148l-9.46,9.4a1.589,1.589,0,0,1-2.224,0,1.542,1.542,0,0,1,0-2.2Z" transform="translate(26.72 -6.196)" fill="#7750f8"/></g></g><path d="M.58,17.665A.5.5,0,0,1,.1,17.014l.6-1.907a.5.5,0,1,1,.954.3l-.6,1.907A.5.5,0,0,1,.58,17.665Zm1.2-3.814a.5.5,0,0,1-.477-.651l.6-1.907a.5.5,0,1,1,.954.3l-.6,1.907A.5.5,0,0,1,1.784,13.85Zm1.2-3.814a.5.5,0,0,1-.477-.651l.6-1.907a.5.5,0,1,1,.954.3l-.6,1.907A.5.5,0,0,1,2.989,10.036Zm1.2-3.814a.5.5,0,0,1-.477-.651l.6-1.907a.5.5,0,0,1,.954.3l-.6,1.907A.5.5,0,0,1,4.193,6.222ZM5.4,2.407a.5.5,0,0,1-.477-.651l.6-1.907a.5.5,0,0,1,.627-.326.5.5,0,0,1,.326.627l-.6,1.907A.5.5,0,0,1,5.4,2.407Z" transform="translate(33.5 2.487)" fill="#7750f8"/></g></g></svg>