<svg xmlns="http://www.w3.org/2000/svg" width="338.5" height="367.224" viewBox="0 0 338.5 367.224"><path d="M9.138.8a7.464,7.464,0,0,1,3.584.563A8.294,8.294,0,0,1,15.66,3.5a10.34,10.34,0,0,1,1.986,3.378,12.574,12.574,0,0,1,.73,4.285,13.6,13.6,0,0,1-.73,4.4,12.683,12.683,0,0,1-1.986,3.7,10.461,10.461,0,0,1-2.938,2.607,8.3,8.3,0,0,1-3.584,1.139A7.464,7.464,0,0,1,5.569,22.4a8.33,8.33,0,0,1-2.9-2.154A10.378,10.378,0,0,1,.715,16.885,12.586,12.586,0,0,1,0,12.642,13.605,13.605,0,0,1,.715,8.284,12.712,12.712,0,0,1,2.666,4.607a10.516,10.516,0,0,1,2.9-2.621A8.342,8.342,0,0,1,9.138.8Z" transform="translate(66.177 179.421)" fill="#f2f2f2"/><path d="M5.715.131A4.831,4.831,0,0,1,7.95.623,5.653,5.653,0,0,1,9.78,2.066a6.96,6.96,0,0,1,1.236,2.175,8.038,8.038,0,0,1,.454,2.688,8.186,8.186,0,0,1-.454,2.7A7.3,7.3,0,0,1,9.78,11.855,5.966,5.966,0,0,1,7.95,13.365a4.953,4.953,0,0,1-2.235.576,4.837,4.837,0,0,1-2.229-.509A5.67,5.67,0,0,1,1.67,11.983,6.974,6.974,0,0,1,.448,9.814,8.041,8.041,0,0,1,0,7.143,8.188,8.188,0,0,1,.448,4.455,7.31,7.31,0,0,1,1.67,2.24,5.984,5.984,0,0,1,3.486.723,4.963,4.963,0,0,1,5.715.131Z" transform="translate(75.591 288.906)" fill="#f2f2f2"/><path d="M0,13.493,76.12,0V1.287L0,14.725Z" transform="translate(111.795 7.374)" fill="#f2f2f2"/><path d="M0,.2,1.073,0V11.571L0,11.761Z" transform="translate(136.994 4.952)" fill="#f2f2f2"/><path d="M0,.2,1.1,0V11.716L0,11.91Z" transform="translate(158.948 0.915)" fill="#f2f2f2"/><path d="M0,2.007,82.937,0V1.344L0,3.292Z" transform="translate(185.919 281.963)" fill="#f2f2f2"/><path d="M0,.036,1.178,0V12.126L0,12.154Z" transform="translate(221.182 271.651)" fill="#f2f2f2"/><path d="M0,.037,1.209,0V12.285L0,12.314Z" transform="translate(245.307 270.917)" fill="#f2f2f2"/><path d="M0,10.077,83.162,0V1.346L0,11.363Z" transform="translate(188.317 98.594)" fill="#f2f2f2"/><path d="M0,.15,1.182,0V12.144L0,12.286Z" transform="translate(223.918 93.324)" fill="#f2f2f2"/><path d="M0,.154,1.213,0V12.3L0,12.45Z" transform="translate(248.116 90.245)" fill="#f2f2f2"/><path d="M0,11.98,83.162,0V1.346L0,13.267Z" transform="translate(188.317 55.322)" fill="#f2f2f2"/><path d="M0,.176,1.182,0V12.144L0,12.313Z" transform="translate(223.918 52.539)" fill="#f2f2f2"/><path d="M0,.181,1.213,0V12.3L0,12.477Z" transform="translate(248.116 48.925)" fill="#f2f2f2"/><path d="M0,10.435,74.071,0V1.269L0,11.651Z" transform="translate(88.829 76.628)" fill="#f2f2f2"/><path d="M0,.153,1.041,0V11.4L0,11.546Z" transform="translate(111.077 73.667)" fill="#f2f2f2"/><path d="M0,.157,1.067,0V11.541L0,11.69Z" transform="translate(132.385 70.537)" fill="#f2f2f2"/><path d="M0,10.2,71.378,0V1.245L0,11.39Z" transform="translate(58.156 77.9)" fill="#f2f2f2"/><path d="M0,.151,1,0V11.173l-1,.144Z" transform="translate(76.583 71.779)" fill="#f2f2f2"/><path d="M0,.154,1.025,0V11.308L0,11.455Z" transform="translate(97.045 68.689)" fill="#f2f2f2"/><path d="M0,6.816,70.263,0V1.235L0,8Z" transform="translate(45.279 159.397)" fill="#f2f2f2"/><path d="M0,.1,1.011,0V11.233L0,11.331Z" transform="translate(85.787 151.982)" fill="#f2f2f2"/><path d="M0,.1,1,0V11.168l-1,.1Z" transform="translate(75.921 153)" fill="#f2f2f2"/><path d="M0,2.225,69.21,0V1.226L0,3.4Z" transform="translate(33.013 272.316)" fill="#f2f2f2"/><path d="M0,.037.971,0V11.006L0,11.036Z" transform="translate(51.242 263.586)" fill="#f2f2f2"/><path d="M0,.038,1.006,0V11.2L0,11.235Z" transform="translate(81.257 262.434)" fill="#f2f2f2"/><path d="M0,5.061,86,0V1.369l-86,5Z" transform="translate(218.144 214.468)" fill="#f2f2f2"/><path d="M0,.078,1.2,0V12.256l-1.2.07Z" transform="translate(240.828 206.768)" fill="#f2f2f2"/><path d="M0,.081,1.252,0V12.5L0,12.575Z" transform="translate(278.133 204.341)" fill="#f2f2f2"/><path d="M0,8.4,84.34,0V1.356L0,9.692Z" transform="translate(200.785 138.103)" fill="#f2f2f2"/><path d="M0,.121,1.22,0V12.339L0,12.452Z" transform="translate(253.527 141.514)" fill="#f2f2f2"/><path d="M0,.121,1.223,0V12.354L0,12.468Z" transform="translate(255.783 141.29)" fill="#f2f2f2"/><path d="M0,9.421,66.953,0V1.2L0,10.578Z" transform="translate(6.404 89.529)" fill="#f2f2f2"/><path d="M0,.144.98,0V11.058L0,11.2Z" transform="translate(59.252 81.014)" fill="#f2f2f2"/><path d="M0,.138.94,0V10.829L0,10.961Z" transform="translate(24.517 86.122)" fill="#f2f2f2"/><path d="M0,4.3,67.3,0V1.208L0,5.464Z" transform="translate(10.548 219.155)" fill="#f2f2f2"/><path d="M0,.062.978,0V11.05L0,11.106Z" transform="translate(57.987 220.521)" fill="#f2f2f2"/><path d="M0,.06.945,0V10.857L0,10.911Z" transform="translate(28.754 222.389)" fill="#f2f2f2"/><path d="M0,13.029,78.552,0V1.307L0,14.281Z" transform="translate(138.623 23.103)" fill="#f2f2f2"/><path d="M0,.188,1.139,0V11.924L0,12.1Z" transform="translate(190.473 28.31)" fill="#f2f2f2"/><path d="M0,.183,1.111,0V11.774L0,11.95Z" transform="translate(167.738 32.074)" fill="#f2f2f2"/><path d="M0,8.562,69.21,0V1.225L0,9.738Z" transform="translate(33.013 114.725)" fill="#f2f2f2"/><path d="M0,.126.971,0V11.006L0,11.125Z" transform="translate(51.242 111.056)" fill="#f2f2f2"/><path d="M0,.13,1.006,0V11.2L0,11.327Z" transform="translate(81.257 107.161)" fill="#f2f2f2"/><path d="M0,27.417V248L247.058,252.9V0Zm115.1,4.237a8.992,8.992,0,0,1-3.287-.255,7.53,7.53,0,0,1-2.675-1.33,6.47,6.47,0,0,1-1.8-2.19,6.313,6.313,0,0,1-.659-2.839,7.224,7.224,0,0,1,.659-2.978,8.74,8.74,0,0,1,1.8-2.571,9.925,9.925,0,0,1,2.675-1.9,10.045,10.045,0,0,1,3.287-.95,9.024,9.024,0,0,1,3.3.228,7.558,7.558,0,0,1,2.7,1.318,6.479,6.479,0,0,1,1.827,2.2,6.31,6.31,0,0,1,.671,2.863,7.23,7.23,0,0,1-.671,3A8.759,8.759,0,0,1,121.1,28.84a10.043,10.043,0,0,1-6,2.815Z" transform="translate(67.042 113.138)" fill="#3f3d56"/><path d="M.971,30.029a42.7,42.7,0,0,0,3.59,10.088A50.236,50.236,0,0,0,9.34,47.8a50.708,50.708,0,0,0,4.194,4.9c1.1,1.127,1.8,1.722,1.8,1.722s.369-.933.872-2.569a64.048,64.048,0,0,0,1.676-6.794,60.5,60.5,0,0,0,1.062-9.636,46.236,46.236,0,0,0-.974-11.058,42.416,42.416,0,0,0-3.649-10.136A48.972,48.972,0,0,0,9.516,6.624,48.47,48.47,0,0,0,5.342,1.85C4.253.764,3.562.2,3.562.2S3.2,1.133,2.7,2.772A65.132,65.132,0,0,0,1.058,9.546a60.813,60.813,0,0,0-1.04,9.548A46.2,46.2,0,0,0,.971,30.029Z" transform="translate(16.186 306.702)" fill="#3f3d56"/><path d="M21.9,11.73a38.2,38.2,0,0,1,5.321,8.875,57.148,57.148,0,0,1,3.035,8.976,66.511,66.511,0,0,1,1.359,6.941c.243,1.738.312,2.782.312,2.782a22.59,22.59,0,0,1-2.243-.357A37.088,37.088,0,0,1,24.1,37.341,35.85,35.85,0,0,1,16.9,33.7a31.366,31.366,0,0,1-7.14-6.453,38.1,38.1,0,0,1-5.209-8.8A56.54,56.54,0,0,1,1.61,9.628,65.784,65.784,0,0,1,.3,2.835C.066,1.135,0,.113,0,.113a21.206,21.206,0,0,1,2.163.3A35.112,35.112,0,0,1,7.6,1.872a34.541,34.541,0,0,1,7.119,3.482A30.89,30.89,0,0,1,21.9,11.73Z" transform="translate(0 321.819)" fill="#6c63ff"/><path d="M0,0,330.947,6.454V7.848L0,1.158Z" transform="translate(7.553 359.376)" fill="#3f3d56"/><path d="M21.451,37.8a15.809,15.809,0,0,0-.5-3.937,14.49,14.49,0,0,0-1.4-3.5,12.434,12.434,0,0,0-2.177-2.838,10.39,10.39,0,0,0-2.824-1.958,10.8,10.8,0,0,0,3.224-2.421,13.282,13.282,0,0,0,2.308-3.517,15.347,15.347,0,0,0,1.22-4.249,15.954,15.954,0,0,0-.038-4.611,14.76,14.76,0,0,0-1.338-4.287,12.455,12.455,0,0,0-2.392-3.35A10.187,10.187,0,0,0,14.356.977a8.884,8.884,0,0,0-3.7-.709,9.1,9.1,0,0,0-3.682.889A10.751,10.751,0,0,0,3.836,3.449,13.125,13.125,0,0,0,1.489,6.871,15.214,15.214,0,0,0,.182,11.159a15.969,15.969,0,0,0-.037,4.555,14.962,14.962,0,0,0,1.191,4.164A12.734,12.734,0,0,0,3.6,23.3a10.357,10.357,0,0,0,3.182,2.338,10.5,10.5,0,0,0-2.791,1.994,12.561,12.561,0,0,0-2.138,2.844A14.573,14.573,0,0,0,.484,33.958a15.927,15.927,0,0,0,0,7.784,14.5,14.5,0,0,0,1.369,3.47,12.475,12.475,0,0,0,2.138,2.834,10.43,10.43,0,0,0,2.791,1.98A10.43,10.43,0,0,0,3.6,52.379a12.821,12.821,0,0,0-2.263,3.438,15.021,15.021,0,0,0-1.191,4.17,15.966,15.966,0,0,0,.037,4.554A15.153,15.153,0,0,0,1.49,68.824a13.036,13.036,0,0,0,2.347,3.41A10.678,10.678,0,0,0,6.975,74.51a9.072,9.072,0,0,0,3.682.871,8.909,8.909,0,0,0,3.7-.727,10.257,10.257,0,0,0,3.179-2.171,12.541,12.541,0,0,0,2.392-3.362,14.821,14.821,0,0,0,1.338-4.294,15.956,15.956,0,0,0,.038-4.611,15.289,15.289,0,0,0-1.22-4.243,13.2,13.2,0,0,0-2.308-3.505,10.729,10.729,0,0,0-3.224-2.405,10.46,10.46,0,0,0,2.824-1.971,12.524,12.524,0,0,0,2.177-2.848,14.565,14.565,0,0,0,1.4-3.506,15.835,15.835,0,0,0,.5-3.939ZM.964,13.551a14.356,14.356,0,0,1,.683-4.41A12.835,12.835,0,0,1,3.533,5.434,10.487,10.487,0,0,1,6.372,2.772,8.545,8.545,0,0,1,9.913,1.507a8.008,8.008,0,0,1,3.663.42A9.1,9.1,0,0,1,16.743,3.9,11.272,11.272,0,0,1,19.1,7.154a13.5,13.5,0,0,1,1.246,4.241,14.507,14.507,0,0,1-.139,4.527,13.621,13.621,0,0,1-1.444,4.036A11.416,11.416,0,0,1,16.242,23.1a9.133,9.133,0,0,1-3.382,1.864,8.918,8.918,0,0,0-1.1-.2,8.795,8.795,0,0,0-2.209.023,8.976,8.976,0,0,0-1.093.22,8.735,8.735,0,0,1-3.028-1.528,10.55,10.55,0,0,1-2.368-2.593,12.678,12.678,0,0,1-1.545-3.4A14.225,14.225,0,0,1,.964,13.551Zm19.5,48.832a14.16,14.16,0,0,1-.7,4.438,12.35,12.35,0,0,1-1.923,3.673,9.99,9.99,0,0,1-2.878,2.564A8.292,8.292,0,0,1,11.4,74.175,8.114,8.114,0,0,1,7.749,73.6a9.519,9.519,0,0,1-3.133-2.1A11.8,11.8,0,0,1,2.3,68.189a13.84,13.84,0,0,1-1.22-4.237,14.469,14.469,0,0,1,.136-4.472,13.277,13.277,0,0,1,1.414-3.96A10.993,10.993,0,0,1,5.11,52.448a8.855,8.855,0,0,1,3.351-1.8,8.952,8.952,0,0,0,1.093.215,8.795,8.795,0,0,0,2.209.012,8.948,8.948,0,0,0,1.1-.2,9,9,0,0,1,3.055,1.584,10.957,10.957,0,0,1,2.4,2.658A13.067,13.067,0,0,1,19.9,58.379a14.392,14.392,0,0,1,.568,4Zm-7.6-12.944a8.977,8.977,0,0,0-1.1-.214,8.82,8.82,0,0,0-3.3.194A8.866,8.866,0,0,1,5.43,47.851a10.754,10.754,0,0,1-2.37-2.627A12.862,12.862,0,0,1,1.516,41.8a14.45,14.45,0,0,1,0-7.911A12.934,12.934,0,0,1,3.06,30.463a10.832,10.832,0,0,1,2.37-2.639A8.919,8.919,0,0,1,8.46,26.241a8.8,8.8,0,0,0,3.3.178,9.012,9.012,0,0,0,1.1-.219,8.821,8.821,0,0,1,3.058,1.535,10.7,10.7,0,0,1,2.407,2.622A12.83,12.83,0,0,1,19.9,33.8a14.447,14.447,0,0,1,0,8,12.9,12.9,0,0,1-1.575,3.453,10.777,10.777,0,0,1-2.407,2.634A8.873,8.873,0,0,1,12.86,49.438Z" transform="translate(44.846 285.732)" fill="#3f3d56"/><path d="M125.946,9.466,3.484,21.5a2.809,2.809,0,0,1-1.358-.2,3.072,3.072,0,0,1-1.107-.794,3.838,3.838,0,0,1-.746-1.265A4.737,4.737,0,0,1,0,17.629a5.223,5.223,0,0,1,.273-1.667,4.951,4.951,0,0,1,.746-1.415,4.111,4.111,0,0,1,1.107-1.017,3.221,3.221,0,0,1,1.358-.472L125.946.415a3.436,3.436,0,0,1,1.564.195,3.5,3.5,0,0,1,1.279.84,4.026,4.026,0,0,1,.863,1.353,4.754,4.754,0,0,1,.317,1.733,5.286,5.286,0,0,1-1.18,3.324,4.662,4.662,0,0,1-1.279,1.1A3.9,3.9,0,0,1,125.946,9.466Z" transform="translate(71.185 139.759)" fill="#f2f2f2"/><path d="M125.946,9.374,3.484,18.609a2.839,2.839,0,0,1-1.358-.229,3.173,3.173,0,0,1-1.107-.819,3.954,3.954,0,0,1-.746-1.282A4.791,4.791,0,0,1,0,14.661,5.167,5.167,0,0,1,.273,13a4.813,4.813,0,0,1,.746-1.4,3.974,3.974,0,0,1,1.107-.992,3.157,3.157,0,0,1,1.358-.441L125.946.323a3.466,3.466,0,0,1,1.564.23,3.614,3.614,0,0,1,1.279.869,4.15,4.15,0,0,1,.863,1.373,4.812,4.812,0,0,1,.317,1.74,5.217,5.217,0,0,1-.317,1.79,5.09,5.09,0,0,1-.863,1.507A4.509,4.509,0,0,1,127.509,8.9,3.826,3.826,0,0,1,125.946,9.374Z" transform="translate(71.185 181.326)" fill="#f2f2f2"/><path d="M125.946,9.282,3.484,15.721a2.872,2.872,0,0,1-1.358-.26,3.277,3.277,0,0,1-1.107-.845,4.071,4.071,0,0,1-.746-1.3A4.845,4.845,0,0,1,0,11.692a5.11,5.11,0,0,1,.273-1.655,4.68,4.68,0,0,1,.746-1.381A3.843,3.843,0,0,1,2.126,7.69,3.1,3.1,0,0,1,3.484,7.28L125.946.232A3.5,3.5,0,0,1,127.509.5a3.729,3.729,0,0,1,1.279.9,4.28,4.28,0,0,1,.863,1.392,4.87,4.87,0,0,1,.317,1.748,5.157,5.157,0,0,1-.317,1.783,4.942,4.942,0,0,1-.863,1.487,4.362,4.362,0,0,1-1.279,1.039A3.757,3.757,0,0,1,125.946,9.282Z" transform="translate(71.185 222.894)" fill="#f2f2f2"/><path d="M125.946,9.19,3.484,12.832a2.91,2.91,0,0,1-1.358-.291,3.385,3.385,0,0,1-1.107-.87,4.193,4.193,0,0,1-.746-1.316A4.9,4.9,0,0,1,0,8.724,5.054,5.054,0,0,1,.273,7.076a4.548,4.548,0,0,1,.746-1.364A3.717,3.717,0,0,1,2.126,4.77a3.041,3.041,0,0,1,1.358-.379L125.946.14a3.546,3.546,0,0,1,1.564.3,3.85,3.85,0,0,1,1.279.927,4.41,4.41,0,0,1,.863,1.412,4.928,4.928,0,0,1,.317,1.755,5.1,5.1,0,0,1-.317,1.775,4.8,4.8,0,0,1-.863,1.468,4.22,4.22,0,0,1-1.279,1.01A3.693,3.693,0,0,1,125.946,9.19Z" transform="translate(71.185 264.461)" fill="#f2f2f2"/><path d="M125.946,9.149,3.484,11.52a2.93,2.93,0,0,1-1.358-.305,3.436,3.436,0,0,1-1.107-.882A4.248,4.248,0,0,1,.273,9.01,4.924,4.924,0,0,1,0,7.376,5.029,5.029,0,0,1,.273,5.731a4.489,4.489,0,0,1,.746-1.357,3.661,3.661,0,0,1,1.107-.93A3.017,3.017,0,0,1,3.484,3.08L125.946.1a3.566,3.566,0,0,1,1.564.318,3.908,3.908,0,0,1,1.279.941,4.47,4.47,0,0,1,.863,1.421,4.955,4.955,0,0,1,.317,1.758,5.069,5.069,0,0,1-.317,1.772,4.735,4.735,0,0,1-.863,1.459,4.157,4.157,0,0,1-1.279,1A3.666,3.666,0,0,1,125.946,9.149Z" transform="translate(71.185 283.342)" fill="#f2f2f2"/><path d="M104.245,9.365,3.5,19.263a2.824,2.824,0,0,1-1.363-.2,3.082,3.082,0,0,1-1.111-.8A3.843,3.843,0,0,1,.274,17,4.736,4.736,0,0,1,0,15.388a5.224,5.224,0,0,1,.274-1.67A4.957,4.957,0,0,1,1.023,12.3,4.124,4.124,0,0,1,2.134,11.28,3.238,3.238,0,0,1,3.5,10.807L104.245.407A3.335,3.335,0,0,1,105.777.6a3.433,3.433,0,0,1,1.253.832,4,4,0,0,1,.846,1.34,4.75,4.75,0,0,1,.31,1.716,5.269,5.269,0,0,1-.31,1.778,5.194,5.194,0,0,1-.846,1.51,4.572,4.572,0,0,1-1.253,1.085A3.79,3.79,0,0,1,104.245,9.365Z" transform="translate(74.273 141.689)" fill="#6c63ff"/><path d="M72.089,9.127,3.515,14.3a2.875,2.875,0,0,1-1.37-.23,3.2,3.2,0,0,1-1.117-.823,3.966,3.966,0,0,1-.752-1.288A4.791,4.791,0,0,1,0,10.333,5.169,5.169,0,0,1,.276,8.665a4.83,4.83,0,0,1,.752-1.4,4.006,4.006,0,0,1,1.117-1,3.2,3.2,0,0,1,1.37-.443L72.089.307a3.219,3.219,0,0,1,1.485.227,3.438,3.438,0,0,1,1.215.849,4.071,4.071,0,0,1,.82,1.339,4.8,4.8,0,0,1,.3,1.7,5.2,5.2,0,0,1-.3,1.743,4.981,4.981,0,0,1-.82,1.467,4.3,4.3,0,0,1-1.215,1.038,3.559,3.559,0,0,1-1.485.459Z" transform="translate(78.738 185.065)" fill="#6c63ff"/><path d="M33.916,8.865l-30.382,1.6A2.931,2.931,0,0,1,2.157,10.2a3.32,3.32,0,0,1-1.123-.85A4.091,4.091,0,0,1,.277,8.042,4.847,4.847,0,0,1,0,6.406,5.114,5.114,0,0,1,.277,4.739a4.705,4.705,0,0,1,.756-1.392,3.893,3.893,0,0,1,1.123-.974A3.16,3.16,0,0,1,3.534,1.96L33.916.212A3.082,3.082,0,0,1,35.346.47a3.424,3.424,0,0,1,1.169.862A4.139,4.139,0,0,1,37.3,2.664a4.851,4.851,0,0,1,.29,1.671,5.125,5.125,0,0,1-.29,1.7,4.765,4.765,0,0,1-.789,1.42,4.013,4.013,0,0,1-1.169.99A3.313,3.313,0,0,1,33.916,8.865Z" transform="translate(83.373 227.509)" fill="#6c63ff"/><path d="M114.2,9.138,3.49,12.431a2.918,2.918,0,0,1-1.36-.291,3.391,3.391,0,0,1-1.109-.871A4.2,4.2,0,0,1,.274,9.951,4.9,4.9,0,0,1,0,8.319a5.054,5.054,0,0,1,.274-1.65A4.55,4.55,0,0,1,1.021,5.3,3.723,3.723,0,0,1,2.13,4.361a3.049,3.049,0,0,1,1.36-.379L114.2.138a3.489,3.489,0,0,1,1.546.3,3.809,3.809,0,0,1,1.265.922,4.391,4.391,0,0,1,.854,1.4,4.924,4.924,0,0,1,.313,1.745,5.091,5.091,0,0,1-.313,1.765,4.779,4.779,0,0,1-.854,1.459,4.174,4.174,0,0,1-1.265,1,3.636,3.636,0,0,1-1.546.4Z" transform="translate(72.768 264.815)" fill="#6c63ff"/><path d="M88.89,8.987,3.506,10.64a2.955,2.955,0,0,1-1.366-.306A3.455,3.455,0,0,1,1.025,9.45a4.259,4.259,0,0,1-.75-1.328A4.924,4.924,0,0,1,0,6.483,5.03,5.03,0,0,1,.275,4.833a4.5,4.5,0,0,1,.75-1.361,3.682,3.682,0,0,1,1.114-.933,3.044,3.044,0,0,1,1.366-.366L88.89.094A3.392,3.392,0,0,1,90.4.407a3.778,3.778,0,0,1,1.235.925,4.41,4.41,0,0,1,.833,1.4,4.946,4.946,0,0,1,.306,1.727A5.056,5.056,0,0,1,92.467,6.2a4.668,4.668,0,0,1-.833,1.433,4.021,4.021,0,0,1-1.235.979A3.49,3.49,0,0,1,88.89,8.987Z" transform="translate(76.477 284.118)" fill="#6c63ff"/><path d="M0,.119,1.158,0V9.1L0,9.213Z" transform="translate(205.698 139.17)" fill="#6c63ff"/><path d="M4.651,10.913a4.017,4.017,0,0,1-1.813-.232A4.071,4.071,0,0,1,1.36,9.71a4.635,4.635,0,0,1-1-1.555A5.438,5.438,0,0,1,0,6.167,6.066,6.066,0,0,1,1.36,2.35,5.419,5.419,0,0,1,2.838,1.081a4.569,4.569,0,0,1,1.813-.6A4.021,4.021,0,0,1,6.468.706a4.067,4.067,0,0,1,1.486.966,4.627,4.627,0,0,1,1,1.558,5.435,5.435,0,0,1,.368,2,6.073,6.073,0,0,1-1.373,3.83,5.414,5.414,0,0,1-1.486,1.265A4.566,4.566,0,0,1,4.651,10.913Zm0-9.125a3.425,3.425,0,0,0-1.36.447,4.062,4.062,0,0,0-1.109.951A4.55,4.55,0,0,0,1.161,6.05a4.076,4.076,0,0,0,.274,1.492,3.475,3.475,0,0,0,.747,1.167,3.052,3.052,0,0,0,1.109.727,3.013,3.013,0,0,0,1.36.173,3.42,3.42,0,0,0,1.362-.442,4.056,4.056,0,0,0,1.114-.949A4.549,4.549,0,0,0,8.155,5.346a4.079,4.079,0,0,0-.277-1.5,3.476,3.476,0,0,0-.752-1.168,3.054,3.054,0,0,0-1.113-.725A3.017,3.017,0,0,0,4.651,1.788Z" transform="translate(207.314 137.52)" fill="#6c63ff"/><path d="M0,.093,1.158,0V9.1L0,9.187Z" transform="translate(205.698 180.868)" fill="#6c63ff"/><path d="M4.651,10.806a4.055,4.055,0,0,1-1.813-.273,4.2,4.2,0,0,1-1.478-1,4.779,4.779,0,0,1-1-1.578,5.5,5.5,0,0,1-.365-2A5.969,5.969,0,0,1,.365,3.9a5.862,5.862,0,0,1,1-1.733A5.241,5.241,0,0,1,2.838.933,4.479,4.479,0,0,1,4.651.378,4.057,4.057,0,0,1,6.468.641a4.2,4.2,0,0,1,1.486,1,4.772,4.772,0,0,1,1,1.581,5.5,5.5,0,0,1,.368,2.006,5.974,5.974,0,0,1-.37,2.062,5.863,5.863,0,0,1-1,1.737,5.238,5.238,0,0,1-1.486,1.232A4.48,4.48,0,0,1,4.651,10.806Zm0-9.125a3.359,3.359,0,0,0-1.36.416,3.929,3.929,0,0,0-1.109.926,4.395,4.395,0,0,0-.747,1.3,4.475,4.475,0,0,0-.274,1.541,4.126,4.126,0,0,0,.274,1.5,3.583,3.583,0,0,0,.747,1.184A3.148,3.148,0,0,0,3.291,9.3a3.042,3.042,0,0,0,1.36.2,3.355,3.355,0,0,0,1.362-.411,3.923,3.923,0,0,0,1.114-.924,4.393,4.393,0,0,0,.752-1.3,4.476,4.476,0,0,0,.276-1.546,4.13,4.13,0,0,0-.277-1.5,3.585,3.585,0,0,0-.752-1.185,3.15,3.15,0,0,0-1.113-.75,3.045,3.045,0,0,0-1.361-.2Z" transform="translate(207.314 179.425)" fill="#6c63ff"/><path d="M0,.067,1.158,0V9.1L0,9.16Z" transform="translate(205.698 222.565)" fill="#6c63ff"/><path d="M4.651,10.7a4.1,4.1,0,0,1-1.813-.315A4.333,4.333,0,0,1,1.36,9.347a4.927,4.927,0,0,1-1-1.6,5.571,5.571,0,0,1-.365-2A5.9,5.9,0,0,1,.365,3.7a5.693,5.693,0,0,1,1-1.71A5.07,5.07,0,0,1,2.838.785,4.4,4.4,0,0,1,4.651.271a4.1,4.1,0,0,1,1.817.3A4.329,4.329,0,0,1,7.954,1.61a4.92,4.92,0,0,1,1,1.6,5.568,5.568,0,0,1,.368,2.014,5.9,5.9,0,0,1-.37,2.054A5.693,5.693,0,0,1,7.952,9a5.066,5.066,0,0,1-1.486,1.2A4.4,4.4,0,0,1,4.651,10.7Zm0-9.125a3.3,3.3,0,0,0-1.36.385,3.8,3.8,0,0,0-1.109.9,4.268,4.268,0,0,0-.747,1.283,4.423,4.423,0,0,0-.274,1.535,4.176,4.176,0,0,0,.274,1.5,3.694,3.694,0,0,0,.747,1.2,3.25,3.25,0,0,0,1.109.778,3.074,3.074,0,0,0,1.36.235,3.3,3.3,0,0,0,1.362-.38,3.8,3.8,0,0,0,1.114-.9,4.265,4.265,0,0,0,.752-1.285,4.424,4.424,0,0,0,.276-1.54,4.18,4.18,0,0,0-.277-1.509,3.7,3.7,0,0,0-.752-1.2,3.25,3.25,0,0,0-1.113-.776A3.078,3.078,0,0,0,4.651,1.574Z" transform="translate(207.314 221.329)" fill="#6c63ff"/><path d="M0,.04,1.158,0V9.1L0,9.134Z" transform="translate(205.698 264.263)" fill="#6c63ff"/><path d="M4.651,10.592a4.148,4.148,0,0,1-1.813-.356A4.473,4.473,0,0,1,1.36,9.165a5.078,5.078,0,0,1-1-1.623A5.638,5.638,0,0,1,0,5.528,5.83,5.83,0,0,1,.365,3.491a5.526,5.526,0,0,1,1-1.688A4.9,4.9,0,0,1,2.838.637,4.324,4.324,0,0,1,4.651.164,4.147,4.147,0,0,1,6.468.51,4.469,4.469,0,0,1,7.954,1.578a5.071,5.071,0,0,1,1,1.627,5.636,5.636,0,0,1,.368,2.023,5.835,5.835,0,0,1-.37,2.045,5.526,5.526,0,0,1-1,1.691,4.9,4.9,0,0,1-1.486,1.164A4.323,4.323,0,0,1,4.651,10.592Zm0-9.125a3.242,3.242,0,0,0-1.36.354A3.676,3.676,0,0,0,2.181,2.7a4.144,4.144,0,0,0-.747,1.266,4.371,4.371,0,0,0-.274,1.528A4.227,4.227,0,0,0,1.434,7a3.807,3.807,0,0,0,.747,1.218,3.355,3.355,0,0,0,1.109.8,3.113,3.113,0,0,0,1.36.266A3.241,3.241,0,0,0,6.013,8.94a3.672,3.672,0,0,0,1.114-.873A4.14,4.14,0,0,0,7.879,6.8a4.372,4.372,0,0,0,.276-1.534A4.231,4.231,0,0,0,7.878,3.75a3.809,3.809,0,0,0-.752-1.219,3.356,3.356,0,0,0-1.113-.8A3.115,3.115,0,0,0,4.651,1.468Z" transform="translate(207.314 263.234)" fill="#6c63ff"/><path d="M0,.028,1.158,0V9.1L0,9.122Z" transform="translate(205.698 283.203)" fill="#6c63ff"/><path d="M4.651,10.544a4.174,4.174,0,0,1-1.813-.375A4.54,4.54,0,0,1,1.36,9.082a5.149,5.149,0,0,1-1-1.634A5.668,5.668,0,0,1,0,5.431,5.8,5.8,0,0,1,.365,3.4a5.451,5.451,0,0,1,1-1.677A4.831,4.831,0,0,1,2.838.569,4.291,4.291,0,0,1,4.651.115,4.171,4.171,0,0,1,6.468.481,4.534,4.534,0,0,1,7.954,1.564a5.141,5.141,0,0,1,1,1.637,5.667,5.667,0,0,1,.368,2.026,5.8,5.8,0,0,1-.37,2.041,5.452,5.452,0,0,1-1,1.68A4.83,4.83,0,0,1,6.467,10.1,4.294,4.294,0,0,1,4.651,10.544Zm0-9.125a3.218,3.218,0,0,0-1.36.34,3.621,3.621,0,0,0-1.109.863A4.088,4.088,0,0,0,1.434,3.88a4.347,4.347,0,0,0-.274,1.525,4.25,4.25,0,0,0,.274,1.514,3.86,3.86,0,0,0,.747,1.226,3.4,3.4,0,0,0,1.109.815,3.131,3.131,0,0,0,1.36.28,3.218,3.218,0,0,0,1.362-.334,3.618,3.618,0,0,0,1.114-.861,4.084,4.084,0,0,0,.752-1.26,4.348,4.348,0,0,0,.276-1.531,4.254,4.254,0,0,0-.277-1.518,3.863,3.863,0,0,0-.752-1.227,3.405,3.405,0,0,0-1.113-.813A3.133,3.133,0,0,0,4.651,1.419Z" transform="translate(207.314 282.43)" fill="#6c63ff"/><path d="M2.329.239a2.011,2.011,0,0,1,.908.112A2.034,2.034,0,0,1,3.98.834a2.315,2.315,0,0,1,.5.779,2.718,2.718,0,0,1,.184,1A3.033,3.033,0,0,1,3.98,4.525a2.706,2.706,0,0,1-.742.633,2.281,2.281,0,0,1-.908.3,2.01,2.01,0,0,1-.907-.115,2.035,2.035,0,0,1-.74-.485,2.316,2.316,0,0,1-.5-.778,2.718,2.718,0,0,1-.183-1A3.033,3.033,0,0,1,.682,1.17a2.709,2.709,0,0,1,.74-.634A2.284,2.284,0,0,1,2.329.239Z" transform="translate(209.911 140.292)" fill="#6c63ff"/><path d="M2.329.079a2.075,2.075,0,0,1,.908.174A2.236,2.236,0,0,1,3.98.788a2.537,2.537,0,0,1,.5.813,2.818,2.818,0,0,1,.184,1.01A2.915,2.915,0,0,1,4.48,3.633a2.761,2.761,0,0,1-.5.845,2.45,2.45,0,0,1-.742.582,2.161,2.161,0,0,1-.908.233,2.075,2.075,0,0,1-.907-.177,2.237,2.237,0,0,1-.74-.535,2.539,2.539,0,0,1-.5-.812A2.819,2.819,0,0,1,0,2.761a2.915,2.915,0,0,1,.183-1.02A2.762,2.762,0,0,1,.682.9a2.452,2.452,0,0,1,.74-.583A2.162,2.162,0,0,1,2.329.079Z" transform="translate(209.911 266.059)" fill="#6c63ff"/><path d="M2.329.055a2.087,2.087,0,0,1,.908.184A2.268,2.268,0,0,1,3.98.78a2.572,2.572,0,0,1,.5.818,2.833,2.833,0,0,1,.184,1.012,2.9,2.9,0,0,1-.184,1.02,2.725,2.725,0,0,1-.5.84,2.414,2.414,0,0,1-.742.575,2.145,2.145,0,0,1-.908.224,2.087,2.087,0,0,1-.907-.186,2.269,2.269,0,0,1-.74-.543,2.573,2.573,0,0,1-.5-.817A2.834,2.834,0,0,1,0,2.714,2.9,2.9,0,0,1,.183,1.7a2.726,2.726,0,0,1,.5-.839,2.416,2.416,0,0,1,.74-.576A2.147,2.147,0,0,1,2.329.055Z" transform="translate(209.911 284.623)" fill="#6c63ff"/><path d="M3.8.481A3.155,3.155,0,0,1,5.279.641a3.223,3.223,0,0,1,1.212.793,3.829,3.829,0,0,1,.818,1.3,4.69,4.69,0,0,1,.3,1.681,5.316,5.316,0,0,1-.3,1.756,5.273,5.273,0,0,1-.818,1.5A4.588,4.588,0,0,1,5.279,8.767,3.7,3.7,0,0,1,3.8,9.293a3.152,3.152,0,0,1-1.48-.167,3.227,3.227,0,0,1-1.207-.8A3.834,3.834,0,0,1,.3,7.032,4.692,4.692,0,0,1,0,5.357,5.33,5.33,0,0,1,1.11,2.109,4.6,4.6,0,0,1,2.317,1.014,3.705,3.705,0,0,1,3.8.481Z" transform="translate(145.397 103.98)" fill="#3f3d56"/><path d="M3.8.705A3.112,3.112,0,0,1,5.279.778,2.983,2.983,0,0,1,6.491,1.5,3.538,3.538,0,0,1,7.31,2.752a4.548,4.548,0,0,1,.3,1.664,5.472,5.472,0,0,1-.3,1.773A5.671,5.671,0,0,1,6.491,7.74,5,5,0,0,1,5.279,8.9,3.918,3.918,0,0,1,3.8,9.517a3.107,3.107,0,0,1-1.48-.08A2.985,2.985,0,0,1,1.11,8.712,3.543,3.543,0,0,1,.3,7.461,4.551,4.551,0,0,1,0,5.8,5.471,5.471,0,0,1,.3,4.038,5.673,5.673,0,0,1,1.11,2.49,5.014,5.014,0,0,1,2.317,1.325,3.929,3.929,0,0,1,3.8.705Z" transform="translate(145.397)" fill="#3f3d56"/><path d="M0,.2,1.087,0V116.477L0,116.6Z" transform="translate(148.623 5.017)" fill="#3f3d56"/><path d="M56.948,7.465V24.332s.237,1.684.593,4.581.831,7.012,1.306,11.87S59.8,51.25,60.154,57.129s.595,12.032.595,17.979-.384,13.881-.961,22.433-1.344,17.707-2.11,26.117-1.532,16.059-2.106,21.612-.956,9-.956,9-.764.289-1.922.61a23.715,23.715,0,0,1-4.28.8,9.131,9.131,0,0,1-4.423-.541,4,4,0,0,1-2.385-3.405c-.215-1.782-.52-5.481-.857-10.112s-.7-10.191-1.044-15.7-.653-10.969-.882-15.4-.371-7.828-.371-9.22a76.454,76.454,0,0,0-1.564-9.8c-.937-4.723-2.185-10.492-3.431-16.08s-2.488-10.98-3.419-14.982-1.55-6.6-1.55-6.6l-6.21,46.924s.123,3.448.277,8.645.339,12.146.462,19.144.185,14.047.092,19.441-.339,9.131-.831,9.512a10.749,10.749,0,0,1-2.647,1.257,27,27,0,0,1-3.976,1.072,13.933,13.933,0,0,1-3.8.268c-1.073-.113-1.872-.461-2.149-1.149a106.719,106.719,0,0,1-1.551-10.774c-.7-5.892-1.531-13.484-2.326-20.985S4.275,112.3,3.714,106.77s-.922-9.176-.922-9.176-.293-4.772-.689-12S1.21,68.692.8,58.874.059,39.1.007,31.308.179,17.871.866,16.686s1.358-2.314,1.978-3.339,1.189-1.95,1.672-2.726.88-1.4,1.157-1.837.432-.673.432-.673,2.474-.85,6.355-1.925a140.2,140.2,0,0,1,14.9-3.3A68.238,68.238,0,0,1,44.437,2C49.771,2.539,54.325,4.145,56.948,7.465Z" transform="translate(236.714 181.478)" fill="#2f2e41"/><path d="M12.552.041l.729,5.086q.092.651.167,1.3t.135,1.308q.06.655.1,1.311t.071,1.314c.028.639.074,1.364.149,2.1s.177,1.491.319,2.183a8.607,8.607,0,0,0,.552,1.825,2,2,0,0,0,.85,1.027,18.049,18.049,0,0,1,3.109,2.463A35.382,35.382,0,0,1,22.9,24.5c1.21,1.62,2.063,3.225,2.025,4.454s-.969,2.08-3.319,2.191-4.391.256-6.185.373-3.331.208-4.664.212a14.739,14.739,0,0,1-3.422-.31,5.684,5.684,0,0,1-2.448-1.192,5.647,5.647,0,0,1-1.318-1.395c-.134-.267-.024-.366.141-.379a.8.8,0,0,1,.476.134c.09.074.048.15-.312.143a10.792,10.792,0,0,1-1.111-.059,3.519,3.519,0,0,1-1.083-.291,2.421,2.421,0,0,1-.92-.753,3.792,3.792,0,0,1-.623-1.444,7.342,7.342,0,0,1-.108-2.112,17.3,17.3,0,0,1,.323-2.221c.143-.695.3-1.312.431-1.756S1,19.382,1,19.382V0Z" transform="translate(277.324 333.828)" fill="#2f2e41"/><path d="M11.68.037,10.984,5q-.087.635-.16,1.272T10.695,7.55q-.057.639-.1,1.279t-.068,1.282c-.027.623-.071,1.331-.142,2.051s-.169,1.452-.3,2.125a8.4,8.4,0,0,1-.526,1.768,1.874,1.874,0,0,1-.808.981A16.512,16.512,0,0,0,5.8,19.357a32.455,32.455,0,0,0-3.912,4.278C.761,25.163-.035,26.685,0,27.874s.9,2.044,3.1,2.238,4.14.412,5.842.594,3.177.33,4.455.385a13.819,13.819,0,0,0,3.3-.173,5.234,5.234,0,0,0,2.373-1.081,5.236,5.236,0,0,0,1.282-1.328c.13-.259.024-.36-.137-.379a.749.749,0,0,0-.464.115c-.087.07-.047.146.3.152a10.339,10.339,0,0,0,1.083-.019,3.319,3.319,0,0,0,1.058-.249,2.256,2.256,0,0,0,.9-.712,3.633,3.633,0,0,0,.611-1.408,7.3,7.3,0,0,0,.106-2.088,17.5,17.5,0,0,0-.317-2.21c-.141-.692-.3-1.308-.422-1.751s-.211-.712-.211-.712V.071Z" transform="translate(235.861 333.457)" fill="#2f2e41"/><path d="M15.677,1.3s.3.766.8,1.942,1.2,2.765,2.009,4.409A44.518,44.518,0,0,0,21.131,12.4a8.858,8.858,0,0,0,2.708,2.936,3.86,3.86,0,0,1,1.7,2.583,15.93,15.93,0,0,1,.425,3.976,34.239,34.239,0,0,1-.212,3.646c-.106.969-.213,1.6-.213,1.6L17.079,40.952l-6.712.708L2.32,27.311s-.035-.623-.112-1.592-.2-2.285-.371-3.67-.4-2.84-.681-4.088A8.417,8.417,0,0,0,.113,15.114c-.413-.557.345-1.692,1.716-3.084A57.749,57.749,0,0,1,7.237,7.4c2.051-1.589,4.158-3.112,5.755-4.238S15.677,1.3,15.677,1.3Z" transform="translate(239.759 88.912)" fill="#ffb9b9"/><path d="M15.677,1.3s.3.766.8,1.942,1.2,2.765,2.009,4.409A44.518,44.518,0,0,0,21.131,12.4a8.858,8.858,0,0,0,2.708,2.936,3.86,3.86,0,0,1,1.7,2.583,15.93,15.93,0,0,1,.425,3.976,34.239,34.239,0,0,1-.212,3.646c-.106.969-.213,1.6-.213,1.6L17.079,40.952l-6.712.708L2.32,27.311s-.035-.623-.112-1.592-.2-2.285-.371-3.67-.4-2.84-.681-4.088A8.417,8.417,0,0,0,.113,15.114c-.413-.557.345-1.692,1.716-3.084A57.749,57.749,0,0,1,7.237,7.4c2.051-1.589,4.158-3.112,5.755-4.238S15.677,1.3,15.677,1.3Z" transform="translate(239.759 88.912)" opacity="0.1"/><path d="M25.347,2.6,38.138,4.2l9.491,102.127a6.546,6.546,0,0,0-.894.317,14.56,14.56,0,0,0-2.353,1.277,21.507,21.507,0,0,0-3.316,2.726,30.074,30.074,0,0,0-3.787,4.658,16.276,16.276,0,0,1-4,4.285,10.408,10.408,0,0,1-4.009,1.786,9.566,9.566,0,0,1-3.621.03,9.69,9.69,0,0,1-2.842-.989c-.774-.418-2.127-1.015-3.723-1.708s-3.429-1.478-5.174-2.277a49.1,49.1,0,0,1-4.625-2.352c-1.231-.742-2.045-1.417-2.114-1.946s-.069-3.267-.03-7.078.117-8.694.2-13.512.182-9.571.255-13.12.126-5.893.126-5.893L0,14.953,3.855,8.144l6.924-.8,5.576,4.557Z" transform="translate(237.03 105.586)" fill="#6c63ff"/><path d="M14.277,1.943a12.517,12.517,0,0,1,5.617.494A12.131,12.131,0,0,1,24.507,5.23,13.5,13.5,0,0,1,27.63,9.883a16,16,0,0,1,1.148,6.057,18.3,18.3,0,0,1-1.148,6.345,18.846,18.846,0,0,1-3.123,5.437,17.251,17.251,0,0,1-4.612,3.951,14.541,14.541,0,0,1-5.617,1.9,12.466,12.466,0,0,1-5.584-.586,12.149,12.149,0,0,1-4.535-2.837,13.551,13.551,0,0,1-3.045-4.628A16.024,16.024,0,0,1,0,19.553,18.289,18.289,0,0,1,1.114,13.3,18.863,18.863,0,0,1,4.159,7.907,17.329,17.329,0,0,1,8.694,3.931,14.639,14.639,0,0,1,14.277,1.943Z" transform="translate(229.195 76.079)" fill="#ffb9b9"/><path d="M4.633,5.168s1.735-.014,4.382.06,6.234.24,9.907.6A63.092,63.092,0,0,1,29.424,7.6c3.041.86,5.32,2.022,5.977,3.588s.877,4.591.836,8.246-.343,7.938-.726,12.023-.849,7.968-1.219,10.832-.643,4.7-.643,4.7.657,1.519,1.638,3.893,2.29,5.61,3.591,9.035,2.6,7.051,3.549,10.192a26.536,26.536,0,0,1,1.487,7.3,70.617,70.617,0,0,0,1.268,9.66c.752,4.541,1.667,10,2.24,15.15s.8,10,.19,13.3-2.074,5.053-4.876,4.035a13.626,13.626,0,0,1-5.986-4.139,20.9,20.9,0,0,1-2.7-4.461c-.6-1.231-1.03-2.053-1.654-2s-1.442.983-2.823,3.251a40.041,40.041,0,0,1-3.547,5.06,12.445,12.445,0,0,1-2.425,2.3,3.292,3.292,0,0,1-1.393.6.87.87,0,0,1-.446-.033s-.342.621-.882,1.539-1.276,2.131-2.066,3.318a26.357,26.357,0,0,1-2.384,3.154c-.752.809-1.413,1.269-1.842,1.06a2.827,2.827,0,0,1-1.112-1.641,10.032,10.032,0,0,1-.5-3.063,11.04,11.04,0,0,1,.522-3.583,7.84,7.84,0,0,1,1.943-3.205,7.2,7.2,0,0,0,1.952-3.178,9.3,9.3,0,0,0,.126-4.261,22.176,22.176,0,0,0-1.916-5.579,56.966,56.966,0,0,0-4.159-7.12c-1.779-2.651-3.573-8.243-5.2-15.275S3.185,66.829,2.091,58.419.258,41.66.056,34.819s.132-12.168,1.188-14.51A44.109,44.109,0,0,0,3.56,13.985a32.591,32.591,0,0,0,.967-4.768,21.6,21.6,0,0,0,.172-3A9.189,9.189,0,0,0,4.633,5.168Z" transform="translate(259.721 97.951)" fill="#575a89"/><path d="M11.025,5.935,6.077,11.217,0,7.217,2.6.531Z" transform="translate(282.637 207.149)" fill="#ffb9b9"/><path d="M20.812.778s-1.315.686-3.283,1.856-4.577,2.815-7.182,4.741a43.29,43.29,0,0,0-7.126,6.4C1.287,16.052,0,18.413,0,20.67A58.837,58.837,0,0,0,1.948,31.85C3.119,36.7,4.683,42.339,6.249,47.7S9.39,58.163,10.57,61.919,12.541,68.1,12.541,68.1s0,.644-.009,1.648-.026,2.369-.06,3.811-.086,2.96-.163,4.273a22.841,22.841,0,0,1-.317,3.034c-.137.616-.779,2.438-1.547,4.844s-1.659,5.389-2.3,8.338a27.428,27.428,0,0,0-.787,8.122c.241,2.264,1.11,3.881,2.988,4.237a14.982,14.982,0,0,1,3.328,1.03,11.459,11.459,0,0,1,2.772,1.727,8.486,8.486,0,0,1,1.958,2.38,7.445,7.445,0,0,1,.885,2.985,14.965,14.965,0,0,1-.319,4.068,34.7,34.7,0,0,1-1.087,3.983c-.407,1.238-.818,2.349-1.108,3.222a4.509,4.509,0,0,0-.385,1.792,5.35,5.35,0,0,0,.832,1.639,9.465,9.465,0,0,0,1.272,1.449,3.648,3.648,0,0,0,1.119.774c.281.091.437-.011.367-.388a30.865,30.865,0,0,1,.29-4.468c.255-2.433.662-5.639,1.2-9.111s1.2-7.215,1.981-10.712a66.56,66.56,0,0,1,2.638-9.261c.975-2.506,1.359-8.468,1.367-16.132s-.357-17.025-.88-26.33-1.2-18.541-1.818-25.981S23.586,16,23.308,13.894q-.2-1.676-.458-3.336t-.569-3.3Q21.969,5.616,21.6,4T20.812.778Z" transform="translate(223.499 108.577)" fill="#575a89"/><path d="M0,6.3,4.939,19.043l3.722-8.557L4.389.272Z" transform="translate(233.305 209.307)" fill="#ffb9b9"/><path d="M4.065,2.311s.291.1.771.232,1.152.317,1.912.486A23.807,23.807,0,0,0,9.2,3.452a10.573,10.573,0,0,0,2.38.04A9.1,9.1,0,0,1,15,4.157,21.674,21.674,0,0,1,19.461,6.3a9.13,9.13,0,0,1,3.181,3.065,2.777,2.777,0,0,1-.442,3.406,22.385,22.385,0,0,1-3.323,2.951c-1.177.88-2.4,1.7-3.58,2.565a24.215,24.215,0,0,0-3.353,2.879A14.411,14.411,0,0,0,9.3,25.06C8.585,26.6,7.962,27.827,7.429,28.8s-.976,1.679-1.331,2.2a10.028,10.028,0,0,1-.8,1.042,2.278,2.278,0,0,1-.266.264L0,25.489s.437-.587,1.089-1.511,1.52-2.187,2.379-3.536A43.143,43.143,0,0,0,5.8,16.384a6.86,6.86,0,0,0,.936-3.063A27.518,27.518,0,0,0,6.2,10.443C5.935,9.282,5.61,7.99,5.294,6.785s-.623-2.324-.851-3.141S4.065,2.311,4.065,2.311Z" transform="translate(261.245 95.792)" fill="#6c63ff"/><path d="M8.587,1.337s-.212.115-.543.327a13.727,13.727,0,0,0-1.256.908,10.084,10.084,0,0,0-1.409,1.38A5.481,5.481,0,0,0,4.373,5.7,10.555,10.555,0,0,1,3.116,7.972c-.57.851-1.23,1.759-1.795,2.618A9.77,9.77,0,0,0,.093,12.913c-.192.655-.107,1.156.44,1.4s1.558.659,2.8,1.16S6.04,16.558,7.5,17.137s2.926,1.152,4.141,1.624,2.188.843,2.674,1.019a2.346,2.346,0,0,0,1.692-.2,9.047,9.047,0,0,0,1.828-1.133A18.6,18.6,0,0,0,19.3,17.177c.372-.356.6-.6.6-.6s-.306-.157-.766-.427-1.071-.65-1.682-1.1a10.084,10.084,0,0,1-1.679-1.5,2.657,2.657,0,0,1-.762-1.625,6.86,6.86,0,0,0-1.007-2.56c-.6-1.095-1.408-2.354-2.212-3.545S10.189,3.513,9.588,2.688,8.587,1.337,8.587,1.337Z" transform="translate(232.761 106.565)" fill="#6c63ff"/><path d="M13.707,1.25,6.953,3.829s-.578,2.895-1.4,7.405S3.664,21.86,2.686,28.316.821,41.552.351,47.415s-.522,10.8.174,13.57,2.039,6.9,3.662,11.555S7.724,82.379,9.55,87.22s3.574,9.361,4.863,12.661,2.122,5.394,2.122,5.394l8.537-11.287s-.234-1.524-.618-3.831-.917-5.4-1.517-8.53-1.265-6.307-1.912-8.789-1.278-4.269-1.807-4.631a2.515,2.515,0,0,1-1-1.4,4.78,4.78,0,0,1-.14-1.731,12.936,12.936,0,0,1,.256-1.634,7.17,7.17,0,0,0,.189-1.1,1.082,1.082,0,0,1,.1-.48.511.511,0,0,0,.075-.3,1.2,1.2,0,0,0-.3-.506c-.2-.244-.519-.585-1.015-1.085s-.283-1.671.275-3.2,1.464-3.411,2.352-5.334a43.065,43.065,0,0,0,2.251-5.57c.49-1.683.6-3.081-.045-3.874s-1.5-3.744-2.415-7.722S17.9,25.294,17,20.4s-1.726-9.68-2.322-13.245S13.707,1.25,13.707,1.25Z" transform="translate(249.013 119.527)" fill="#575a89"/><path d="M16.69,19.009,12.455,2.44s.711.465,1.814,1.36a39.1,39.1,0,0,1,4.179,3.945,35.185,35.185,0,0,1,4.639,6.328,27.422,27.422,0,0,1,3.164,8.489c.592,3.163,1.609,7.092,2.711,11.4s2.291,8.995,3.221,13.66a77.246,77.246,0,0,1,1.665,13.538c.065,4.222-.475,8.013-1.963,10.967s-3.247,7.254-5.107,12.039-3.81,10.03-5.687,14.9-3.669,9.328-5.215,12.556-2.838,5.207-3.713,5.1a9.753,9.753,0,0,1-3.34-1.416,38.1,38.1,0,0,1-3.952-2.775,43.66,43.66,0,0,1-3.342-2.915A6.566,6.566,0,0,1,0,107.759c-.072-.306.827-2.376,2.182-5.345s3.172-6.85,4.928-10.759,3.457-7.865,4.571-10.963,1.644-5.347,1.061-5.849a4.272,4.272,0,0,1-1.229-2.066,8.493,8.493,0,0,1-.3-2.692,9.083,9.083,0,0,1,.464-2.577,3.79,3.79,0,0,1,1.065-1.72,5.98,5.98,0,0,0,1.308-1.751,15.6,15.6,0,0,0,1.063-2.466,8.1,8.1,0,0,0,.461-2.125c.014-.534-.132-.834-.5-.725a2.457,2.457,0,0,1-1.515-.233,6.512,6.512,0,0,1-1.84-1.2,5.61,5.61,0,0,1-1.4-1.937,3.849,3.849,0,0,1-.2-2.448,20.114,20.114,0,0,0-.313-5.56c-.368-2.611-.94-5.762-1.538-8.8s-1.223-5.963-1.7-8.129-.8-3.571-.8-3.571Z" transform="translate(280.041 107.241)" opacity="0.1"/><path d="M8.406,2.939l4.083.781s.713.466,1.819,1.361A39.138,39.138,0,0,1,18.5,9.029a35.206,35.206,0,0,1,4.652,6.334,27.422,27.422,0,0,1,3.173,8.5c.593,3.167,1.614,7.1,2.719,11.411s2.3,9.006,3.229,13.677a77.235,77.235,0,0,1,1.67,13.556c.065,4.228-.476,8.024-1.968,10.984s-3.256,7.266-5.121,12.058-3.821,10.045-5.7,14.919-3.679,9.343-5.229,12.575-2.846,5.215-3.723,5.106a9.782,9.782,0,0,1-3.349-1.416,38.175,38.175,0,0,1-3.963-2.777,43.746,43.746,0,0,1-3.351-2.917A6.571,6.571,0,0,1,0,109.189c-.072-.306.83-2.38,2.188-5.353S5.373,96.975,7.134,93.06s3.466-7.877,4.584-10.98,1.649-5.355,1.064-5.857a4.274,4.274,0,0,1-1.232-2.068,8.494,8.494,0,0,1-.3-2.7,9.085,9.085,0,0,1,.465-2.581,3.8,3.8,0,0,1,1.068-1.722A5.992,5.992,0,0,0,14.093,65.4a15.623,15.623,0,0,0,1.066-2.47,8.1,8.1,0,0,0,.463-2.128c.014-.534-.133-.835-.5-.726a2.466,2.466,0,0,1-1.519-.233,6.525,6.525,0,0,1-1.845-1.2,5.614,5.614,0,0,1-1.4-1.939,3.849,3.849,0,0,1-.2-2.451,20.108,20.108,0,0,0-.314-5.567C9.47,46.074,8.9,42.919,8.3,39.875S7.07,33.9,6.594,31.736s-.8-3.575-.8-3.575Z" transform="translate(282.633 104.952)" fill="#575a89"/><path d="M32.05,10.362l2.735-1.45a11.467,11.467,0,0,0-1.019-.832,17.8,17.8,0,0,0-2.833-1.706,16.372,16.372,0,0,0-4.307-1.4,14.564,14.564,0,0,0-5.438.082L23.4,2.328a5.2,5.2,0,0,0-.922-.122,8.726,8.726,0,0,0-2.393.207,10.373,10.373,0,0,0-3.3,1.393,14.439,14.439,0,0,0-3.657,3.427c-.639.828-1.3,1.691-1.968,2.585s-1.33,1.817-1.972,2.767S7.924,14.511,7.35,15.509a32.425,32.425,0,0,0-1.558,3.054l-2.839.369,1.184,2.474L0,24.561l4.246-1.013a15.294,15.294,0,0,0-.2,1.738,14.7,14.7,0,0,0,0,1.72,14.006,14.006,0,0,0,.2,1.68,13.244,13.244,0,0,0,.4,1.619l.965,2.823s.241-.565.6-1.428.846-2.028,1.329-3.226.968-2.431,1.331-3.432a9.95,9.95,0,0,0,.606-2.037v2.68s.167-.172.417-.455.584-.677.917-1.122a10.458,10.458,0,0,0,.918-1.425,3.16,3.16,0,0,0,.418-1.362l1.459,1.693.731-3.049,9.058,1.8-1.475-2.241,5.666.084-2.221-2.689s.4.168,1.006.466a23.973,23.973,0,0,1,2.235,1.247,12.475,12.475,0,0,1,2.287,1.8,3.7,3.7,0,0,1,1.152,2.13A6.85,6.85,0,0,0,32.7,24.81a14.016,14.016,0,0,0,1.185,2.046c.42.61.832,1.128,1.14,1.494s.51.579.51.579l1.5-2.9s.14-.783.238-2.006a26.876,26.876,0,0,0-.019-4.652,15.139,15.139,0,0,0-1.376-5.241A7.649,7.649,0,0,0,32.05,10.362Z" transform="translate(222.654 68.71)" fill="#2f2e41"/><path d="M2.133.275a1.276,1.276,0,0,1,.831.181,2.1,2.1,0,0,1,.679.7A3.884,3.884,0,0,1,4.1,2.264,5.732,5.732,0,0,1,4.27,3.671,6.264,6.264,0,0,1,4.1,5.122a5.028,5.028,0,0,1-.458,1.224,3.048,3.048,0,0,1-.679.871,1.6,1.6,0,0,1-.831.392A1.278,1.278,0,0,1,1.3,7.425a2.111,2.111,0,0,1-.678-.7A3.89,3.89,0,0,1,.167,5.618,5.734,5.734,0,0,1,0,4.213,6.265,6.265,0,0,1,.167,2.766,5.035,5.035,0,0,1,.624,1.543,3.057,3.057,0,0,1,1.3.67,1.6,1.6,0,0,1,2.133.275Z" transform="translate(252.004 86.247)" fill="#ffb9b9"/></svg>