<svg xmlns="http://www.w3.org/2000/svg" xmlns:xlink="http://www.w3.org/1999/xlink" width="1920" height="1560.8" viewBox="0 0 1920 1560.8"><defs><linearGradient id="a" x2="0" y2="1" gradientUnits="objectBoundingBox"><stop offset="0" stop-color="#1d2333"/><stop offset="1" stop-color="#1d2333"/></linearGradient><linearGradient id="b" y1="1" y2="0" xlink:href="#a"/></defs><g transform="translate(0 -4447.415)"><g transform="translate(0 4447.415)"><rect width="1920" height="1394.215" transform="translate(0 81.667)" fill="#1d2333"/><path d="M0,108.476H13.333c13.333,0,40,0,66.667-6.239,26.667-6.356,53.333-18.658,80-17.194s53.333,17.282,80,17.194c26.667.088,53.333-15.729,80-18.746,26.667-3.134,53.333,6.239,80,3.1,26.667-3.017,53.333-18.834,80-24.985s53.333-3.222,80-3.134c26.667-.088,53.333-3.017,80-4.687,26.667-1.552,53.333-1.552,80,9.373,26.667,11.043,53.333,32.718,80,35.94s53.333-12.6,80-14.06,53.333,10.838,80,12.507c26.667,1.552,53.333-7.821,80-10.955,26.667-3.017,53.333-.088,80-4.687,26.667-4.774,53.333-17.077,80-12.478,26.667,4.774,53.333,26.45,80,35.911,26.667,9.285,53.333,6.356,80-6.239s53.333-34.27,80-32.806,53.333,26.655,80,24.985c26.667-1.552,53.333-29.672,80-32.806,26.667-3.017,53.333,18.658,80,31.253s53.333,15.524,80,9.373,53.333-21.968,80-26.567c26.667-4.774,53.333,1.67,66.667,4.687L1920,80.357V24.118H0Z" transform="translate(0 1450.015)" fill="url(#a)"/><path d="M0,26.427H13.333c13.333,0,40,0,66.667,6.239,26.667,6.356,53.333,18.658,80,17.194s53.333-17.282,80-17.194c26.667-.088,53.333,15.729,80,18.746,26.667,3.134,53.333-6.239,80-3.1,26.667,3.017,53.333,18.834,80,24.985s53.333,3.222,80,3.134c26.667.088,53.333,3.017,80,4.687,26.667,1.552,53.333,1.552,80-9.373C746.667,60.7,773.333,39.022,800,35.8s53.333,12.6,80,14.06,53.333-10.838,80-12.507c26.667-1.552,53.333,7.821,80,10.955,26.667,3.017,53.333.088,80,4.687,26.667,4.774,53.333,17.077,80,12.478,26.667-4.774,53.333-26.45,80-35.911,26.667-9.285,53.333-6.356,80,6.239s53.333,34.271,80,32.806,53.333-26.655,80-24.985c26.667,1.552,53.333,29.672,80,32.806,26.667,3.017,53.333-18.658,80-31.254s53.333-15.524,80-9.373,53.333,21.968,80,26.567c26.667,4.774,53.333-1.67,66.667-4.687L1920,54.546v56.239H0Z" transform="translate(0 -24.118)" fill="url(#b)"/></g></g></svg>